<svg version="1.1" id="Layer_1" xmlns="http://www.w3.org/2000/svg" xmlns:xlink="http://www.w3.org/1999/xlink" x="0px" y="0px"
	 width="100%" viewBox="0 0 225 225" enable-background="new 0 0 225 225" xml:space="preserve">
<path fill="#FCFCFC" opacity="1.000000" stroke="none" 
	d="
M125.000000,226.000000 
	C83.333336,226.000000 42.166672,226.000000 1.000005,226.000000 
	C1.000004,151.000000 1.000004,76.000015 1.000002,1.000016 
	C75.999992,1.000010 150.999985,1.000010 225.999969,1.000005 
	C225.999985,75.999985 225.999985,150.999969 226.000000,225.999969 
	C192.500000,226.000000 159.000000,226.000000 125.000000,226.000000 
M154.499893,201.206146 
	C166.998138,201.205826 179.496445,201.224304 191.994629,201.198029 
	C199.298813,201.182663 201.194626,199.327042 201.196777,192.096603 
	C201.212326,139.770706 201.211349,87.444817 201.198410,35.118923 
	C201.196548,27.567039 199.391312,25.801672 191.710983,25.800117 
	C139.551727,25.789558 87.392479,25.789179 35.233227,25.800587 
	C27.533743,25.802269 25.799128,27.532854 25.797991,35.149445 
	C25.790228,87.142052 25.791225,139.134659 25.797035,191.127274 
	C25.797997,199.726547 27.297663,201.202179 36.016582,201.203445 
	C75.177681,201.209106 114.338783,201.206039 154.499893,201.206146 
z"/>
<path fill="#000000" opacity="1.000000" stroke="none" 
	d="
M153.999878,201.206146 
	C114.338783,201.206039 75.177681,201.209106 36.016582,201.203445 
	C27.297663,201.202179 25.797997,199.726547 25.797035,191.127274 
	C25.791225,139.134659 25.790228,87.142052 25.797991,35.149445 
	C25.799128,27.532854 27.533743,25.802269 35.233227,25.800587 
	C87.392479,25.789179 139.551727,25.789558 191.710983,25.800117 
	C199.391312,25.801672 201.196548,27.567039 201.198410,35.118923 
	C201.211349,87.444817 201.212326,139.770706 201.196777,192.096603 
	C201.194626,199.327042 199.298813,201.182663 191.994629,201.198029 
	C179.496445,201.224304 166.998138,201.205826 153.999878,201.206146 
M99.962494,100.545074 
	C90.110756,92.282043 80.259018,84.019012 70.407280,75.755981 
	C69.816681,75.983910 69.226074,76.211845 68.635468,76.439781 
	C68.635468,80.312851 68.802338,84.195358 68.584190,88.056099 
	C68.400063,91.314743 69.314011,93.579308 72.020515,95.710884 
	C79.206398,101.370331 86.083710,107.421577 93.298035,113.497444 
	C86.255341,119.430046 79.390419,125.205666 72.533936,130.991287 
	C68.199066,134.649109 66.912079,145.535721 70.502151,151.192612 
	C85.341782,138.726547 100.119789,126.312241 115.371269,113.500198 
	C109.887016,108.898186 105.191063,104.957657 99.962494,100.545074 
M158.316345,148.768753 
	C158.341492,146.439728 158.140976,144.081299 158.439621,141.787888 
	C159.027222,137.275681 157.125214,136.087814 152.802567,136.219055 
	C143.158676,136.511856 133.499527,136.265640 123.847069,136.322327 
	C112.725494,136.387634 114.401184,134.937408 114.075706,146.237778 
	C113.962456,150.169815 115.634201,150.980270 119.136475,150.932114 
	C130.617783,150.774200 142.103027,150.918716 153.585602,150.817230 
	C155.096207,150.803879 156.600143,150.036621 158.316345,148.768753 
z"/>
<path fill="#FBFBFB" opacity="1.000000" stroke="none" 
	d="
M100.228806,100.781105 
	C105.191063,104.957657 109.887016,108.898186 115.371269,113.500198 
	C100.119789,126.312241 85.341782,138.726547 70.502151,151.192612 
	C66.912079,145.535721 68.199066,134.649109 72.533936,130.991287 
	C79.390419,125.205666 86.255341,119.430046 93.298035,113.497444 
	C86.083710,107.421577 79.206398,101.370331 72.020515,95.710884 
	C69.314011,93.579308 68.400063,91.314743 68.584190,88.056099 
	C68.802338,84.195358 68.635468,80.312851 68.635468,76.439781 
	C69.226074,76.211845 69.816681,75.983910 70.407280,75.755981 
	C80.259018,84.019012 90.110756,92.282043 100.228806,100.781105 
z"/>
<path fill="#F3F3F3" opacity="1.000000" stroke="none" 
	d="
M158.211761,149.193634 
	C156.600143,150.036621 155.096207,150.803879 153.585602,150.817230 
	C142.103027,150.918716 130.617783,150.774200 119.136475,150.932114 
	C115.634201,150.980270 113.962456,150.169815 114.075706,146.237778 
	C114.401184,134.937408 112.725494,136.387634 123.847069,136.322327 
	C133.499527,136.265640 143.158676,136.511856 152.802567,136.219055 
	C157.125214,136.087814 159.027222,137.275681 158.439621,141.787888 
	C158.140976,144.081299 158.341492,146.439728 158.211761,149.193634 
z"/>
</svg>